<svg width="691" height="122" viewBox="0 0 691 122" fill="none" xmlns="http://www.w3.org/2000/svg">
<path d="M115.638 119.324C108.033 119.324 100.766 115.437 96.541 109.184L54.798 46.316L74.74 24.177C83.19 14.713 95.527 2.37599 110.399 2.37599V1.69999H66.628V2.37599H71.529C75.416 2.37599 78.796 4.573 80.317 7.95299C81.838 11.333 81.162 15.389 78.627 18.262L34.011 68.117V17.079C34.011 3.728 40.433 2.37599 48.545 2.37599H53.615V1.69999H0.38V2.37599H5.281C13.393 2.37599 19.984 3.728 19.984 17.079V104.79C19.984 117.972 13.393 119.324 5.281 119.324H0.38V120H53.615V119.324H48.545C40.433 119.324 34.011 117.972 34.011 104.79V72.849C34.011 70.821 34.687 68.793 36.039 67.272L45.165 57.132L80.148 109.86C84.373 116.113 91.64 120 99.245 120H115.638V119.324ZM208.235 119.324H200.461V120H245.584V119.324C233.754 119.324 228.346 105.973 224.459 96.171L186.772 1.69999H186.096L149.592 93.467C145.536 103.438 137.931 119.324 120.693 119.324V120H167.168V119.324C161.084 119.324 155.507 116.282 152.127 111.381C148.747 106.311 148.071 100.058 150.268 94.481L155.338 81.975H203.672L214.826 109.522C215.671 111.719 215.333 114.254 213.981 116.282C212.798 118.141 210.601 119.324 208.235 119.324ZM155.507 81.299L179.505 21.135L203.503 81.299H155.507ZM327.938 1.69999V2.37599C347.373 2.37599 347.542 22.318 347.542 31.613V94.143L286.026 1.69999H252.395V2.37599H265.915C269.295 2.37599 271.999 5.08 271.999 8.46V90.087C271.999 99.382 271.83 119.324 252.395 119.324V120H292.617V119.324C273.182 119.324 273.013 99.382 273.013 90.087V7.446L347.88 120H348.556V95.664V31.613C348.556 22.318 348.725 2.37599 368.16 2.37599V1.69999H327.938ZM461.044 88.397C459.185 98.706 452.932 119.324 423.526 119.324H408.485V61.357H420.484C429.61 61.357 440.257 61.526 440.257 80.961H440.933V40.739H440.257C440.257 60.174 429.61 60.343 420.484 60.343H408.485V2.37599H421.16C452.425 2.37599 456.819 22.994 458.678 33.303L459.354 33.134L455.636 1.69999H374.854V2.37599H379.755C387.867 2.37599 394.458 3.728 394.458 17.079V104.79C394.458 117.972 387.867 119.324 379.755 119.324H374.854V120H458.002L461.72 88.566L461.044 88.397ZM585.504 119.324C577.899 119.324 570.632 115.437 566.407 109.184L524.664 46.316L544.606 24.177C553.056 14.713 565.393 2.37599 580.265 2.37599V1.69999H536.494V2.37599H541.395C545.282 2.37599 548.662 4.573 550.183 7.95299C551.704 11.333 551.028 15.389 548.493 18.262L503.877 68.117V17.079C503.877 3.728 510.299 2.37599 518.411 2.37599H523.481V1.69999H470.246V2.37599H475.147C483.259 2.37599 489.85 3.728 489.85 17.079V104.79C489.85 117.972 483.259 119.324 475.147 119.324H470.246V120H523.481V119.324H518.411C510.299 119.324 503.877 117.972 503.877 104.79V72.849C503.877 70.821 504.553 68.793 505.905 67.272L515.031 57.132L550.014 109.86C554.239 116.113 561.506 120 569.111 120H585.504V119.324ZM637.068 0.516997C607.662 0.516997 583.833 27.557 583.833 60.85C583.833 94.143 607.662 121.352 637.068 121.352C666.474 121.352 690.303 94.143 690.303 60.85C690.303 27.557 666.474 0.516997 637.068 0.516997ZM637.068 120.338C616.957 120.338 600.733 93.636 600.733 60.85C600.733 28.064 616.957 1.53099 637.068 1.53099C657.179 1.53099 673.403 28.064 673.403 60.85C673.403 93.636 657.179 120.338 637.068 120.338Z" fill="#FFFEFA"/>
</svg>
